<svg width="16" height="16" viewBox="0 0 16 16" xmlns="http://www.w3.org/2000/svg">
  <rect width="16" height="16" fill="#f8f9fa"/>
  <path d="M3 2h10c0.5 0 1 0.5 1 1v10c0 0.5-0.5 1-1 1H3c-0.5 0-1-0.5-1-1V3c0-0.5 0.5-1 1-1z" fill="#6c757d" stroke="#495057" stroke-width="0.5"/>
  <line x1="8" y1="4" x2="8" y2="12" stroke="#495057" stroke-width="0.5"/>
  <line x1="5" y1="6" x2="7" y2="6" stroke="#495057" stroke-width="0.3"/>
  <line x1="9" y1="6" x2="11" y2="6" stroke="#495057" stroke-width="0.3"/>
  <line x1="5" y1="8" x2="7" y2="8" stroke="#495057" stroke-width="0.3"/>
  <line x1="9" y1="8" x2="11" y2="8" stroke="#495057" stroke-width="0.3"/>
  <line x1="5" y1="10" x2="7" y2="10" stroke="#495057" stroke-width="0.3"/>
  <line x1="9" y1="10" x2="11" y2="10" stroke="#495057" stroke-width="0.3"/>
</svg>