<svg width="48" height="48" viewBox="0 0 48 48" xmlns="http://www.w3.org/2000/svg">
  <rect width="48" height="48" fill="#f8f9fa"/>
  <path d="M8 6h32c1.5 0 3 1.5 3 3v30c0 1.5-1.5 3-3 3H8c-1.5 0-3-1.5-3-3V9c0-1.5 1.5-3 3-3z" fill="#6c757d" stroke="#495057" stroke-width="1.5"/>
  <line x1="24" y1="12" x2="24" y2="36" stroke="#495057" stroke-width="1.5"/>
  <line x1="12" y1="16" x2="20" y2="16" stroke="#495057" stroke-width="1"/>
  <line x1="28" y1="16" x2="36" y2="16" stroke="#495057" stroke-width="1"/>
  <line x1="12" y1="20" x2="20" y2="20" stroke="#495057" stroke-width="1"/>
  <line x1="28" y1="20" x2="36" y2="20" stroke="#495057" stroke-width="1"/>
  <line x1="12" y1="24" x2="20" y2="24" stroke="#495057" stroke-width="1"/>
  <line x1="28" y1="24" x2="36" y2="24" stroke="#495057" stroke-width="1"/>
  <line x1="12" y1="28" x2="20" y2="28" stroke="#495057" stroke-width="1"/>
  <line x1="28" y1="28" x2="36" y2="28" stroke="#495057" stroke-width="1"/>
  <line x1="12" y1="32" x2="20" y2="32" stroke="#495057" stroke-width="1"/>
  <line x1="28" y1="32" x2="36" y2="32" stroke="#495057" stroke-width="1"/>
</svg>