<svg width="128" height="128" viewBox="0 0 128 128" xmlns="http://www.w3.org/2000/svg">
  <rect width="128" height="128" fill="#f8f9fa"/>
  <path d="M20 16h88c4 0 8 4 8 8v80c0 4-4 8-8 8H20c-4 0-8-4-8-8V24c0-4 4-8 8-8z" fill="#6c757d" stroke="#495057" stroke-width="3"/>
  <line x1="64" y1="32" x2="64" y2="96" stroke="#495057" stroke-width="3"/>
  <line x1="32" y1="40" x2="56" y2="40" stroke="#495057" stroke-width="2"/>
  <line x1="72" y1="40" x2="96" y2="40" stroke="#495057" stroke-width="2"/>
  <line x1="32" y1="48" x2="56" y2="48" stroke="#495057" stroke-width="2"/>
  <line x1="72" y1="48" x2="96" y2="48" stroke="#495057" stroke-width="2"/>
  <line x1="32" y1="56" x2="56" y2="56" stroke="#495057" stroke-width="2"/>
  <line x1="72" y1="56" x2="96" y2="56" stroke="#495057" stroke-width="2"/>
  <line x1="32" y1="64" x2="56" y2="64" stroke="#495057" stroke-width="2"/>
  <line x1="72" y1="64" x2="96" y2="64" stroke="#495057" stroke-width="2"/>
  <line x1="32" y1="72" x2="56" y2="72" stroke="#495057" stroke-width="2"/>
  <line x1="72" y1="72" x2="96" y2="72" stroke="#495057" stroke-width="2"/>
  <line x1="32" y1="80" x2="56" y2="80" stroke="#495057" stroke-width="2"/>
  <line x1="72" y1="80" x2="96" y2="80" stroke="#495057" stroke-width="2"/>
  <line x1="32" y1="88" x2="56" y2="88" stroke="#495057" stroke-width="2"/>
  <line x1="72" y1="88" x2="96" y2="88" stroke="#495057" stroke-width="2"/>
</svg>